<svg id="Layer_1" enable-background="new 0 0 512 512" height="512" viewBox="0 0 512 512" width="512" xmlns="http://www.w3.org/2000/svg"><g><path d="m262.021 414.23c6.224 7.888 12.997 15.515 20.283 22.792 21.942 21.917 46.879 39.015 73.492 51.318 1.604.742 1.544 3.032-.086 3.715-93.152 39.067-204.698 20.745-280.531-55.001-100.079-99.962-100.053-262.058.055-362.052 75.857-75.769 187.407-94.127 280.547-55.089 1.63.683 1.691 2.973.087 3.715-26.617 12.311-51.559 29.418-73.509 51.342-38.935 38.891-62.749 87.29-71.405 137.659z" fill="#ffd400"/><g><path d="m459.178 273.816c-1.131-.308-1.909-1.322-1.909-2.495 0-.007 0-.013 0-.02 0-56.765-46.07-102.783-102.901-102.783-39.398 0-73.619 22.12-90.909 54.601-.731 1.373-2.514 1.76-3.756.823-10.327-7.786-23.18-12.408-37.116-12.408-33.085 0-60.07 26.023-61.594 58.693-.056 1.198-.909 2.192-2.086 2.423-32.868 6.457-57.662 35.391-57.662 70.114 0 39.469 32.033 71.465 71.547 71.465h267.524c39.514 0 71.547-31.996 71.547-71.465.001-32.946-22.323-60.681-52.685-68.948z" fill="#f9f9f9"/></g><path d="m459.178 273.816c-1.131-.308-1.909-1.322-1.909-2.495v-.02c0-56.765-46.07-102.783-102.901-102.783-17.256 0-33.519 4.244-47.801 11.743v233.969h133.75c39.514 0 71.547-31.996 71.547-71.464 0-32.948-22.324-60.683-52.686-68.95z" fill="#f4f1f1"/></g></svg>