<svg id="Capa_1" enable-background="new 0 0 512.33 512.33" height="512" viewBox="0 0 512.33 512.33" width="512" xmlns="http://www.w3.org/2000/svg"><g><g><ellipse cx="319.797" cy="192.719" fill="#ffe07d" rx="84.065" ry="84.065" transform="matrix(.16 -.987 .987 .16 78.341 477.516)"/><path d="m319.797 108.654c-3.962 0-7.854.294-11.671.825 40.901 5.684 72.394 40.775 72.394 83.24s-31.493 77.556-72.394 83.24c3.816.53 7.708.825 11.671.825 46.428 0 84.065-37.637 84.065-84.065s-37.637-84.065-84.065-84.065z" fill="#ffd064"/><g><g><path d="m319.776 82.64c-4.204 0-7.612-3.408-7.612-7.612v-67.251c0-4.204 3.407-7.611 7.612-7.611s7.612 3.408 7.612 7.611v67.252c0 4.203-3.408 7.611-7.612 7.611z" fill="#ffe07d"/></g><g><path d="m504.719 200.331h-67.252c-4.204 0-7.612-3.408-7.612-7.612s3.407-7.611 7.612-7.611h67.252c4.204 0 7.611 3.408 7.611 7.611 0 4.204-3.407 7.612-7.611 7.612z" fill="#ffe07d"/></g><g><path d="m202.085 200.331h-67.252c-4.204 0-7.611-3.408-7.611-7.612s3.407-7.611 7.611-7.611h67.252c4.204 0 7.611 3.408 7.611 7.611.001 4.204-3.407 7.612-7.611 7.612z" fill="#ffe07d"/></g><g><path d="m402.996 117.111c-1.947 0-3.896-.743-5.383-2.229-2.972-2.972-2.972-7.792 0-10.764l47.554-47.554c2.973-2.972 7.792-2.972 10.765 0 2.972 2.972 2.972 7.792 0 10.764l-47.554 47.554c-1.486 1.485-3.434 2.229-5.382 2.229z" fill="#ffe07d"/></g><g><path d="m450.55 331.105c-1.948 0-3.896-.743-5.382-2.229l-47.554-47.555c-2.972-2.972-2.972-7.792 0-10.764 2.974-2.973 7.793-2.973 10.765 0l47.554 47.555c2.972 2.972 2.972 7.792 0 10.764-1.487 1.485-3.435 2.229-5.383 2.229z" fill="#ffe07d"/></g><g><path d="m236.556 117.111c-1.947 0-3.896-.743-5.383-2.229l-47.554-47.554c-2.972-2.972-2.972-7.792 0-10.764 2.973-2.972 7.792-2.972 10.765 0l47.554 47.554c2.972 2.972 2.972 7.792 0 10.764-1.486 1.485-3.434 2.229-5.382 2.229z" fill="#ffe07d"/></g></g><g><g><path d="m274.74 91.601c-2.987 0-5.821-1.77-7.035-4.701l-12.868-31.066c-1.61-3.884.235-8.336 4.119-9.945 3.883-1.61 8.336.236 9.945 4.119l12.868 31.066c1.609 3.884-.235 8.336-4.119 9.945-.952.395-1.939.582-2.91.582z" fill="#fff0af"/></g><g><path d="m211.041 155.294c-.971 0-1.957-.187-2.91-.581l-31.066-12.868c-3.884-1.609-5.728-6.061-4.119-9.945 1.61-3.884 6.063-5.728 9.945-4.119l31.066 12.868c3.884 1.609 5.728 6.061 4.119 9.945-1.215 2.931-4.048 4.7-7.035 4.7z" fill="#fff0af"/></g><g><path d="m459.571 258.239c-.971 0-1.957-.187-2.91-.581l-31.066-12.868c-3.884-1.609-5.728-6.061-4.119-9.945s6.062-5.726 9.944-4.119l31.066 12.868c3.884 1.609 5.728 6.062 4.119 9.945-1.213 2.93-4.047 4.7-7.034 4.7z" fill="#fff0af"/></g><g><path d="m428.51 155.294c-2.987 0-5.821-1.77-7.035-4.701-1.609-3.883.235-8.336 4.119-9.945l31.066-12.868c3.884-1.61 8.336.236 9.944 4.119 1.61 3.883-.235 8.336-4.119 9.945l-31.066 12.868c-.951.396-1.938.582-2.909.582z" fill="#fff0af"/></g><g><path d="m364.811 91.601c-.971 0-1.957-.187-2.91-.581-3.884-1.609-5.729-6.061-4.119-9.945l12.868-31.066c1.61-3.884 6.064-5.727 9.945-4.119 3.884 1.609 5.728 6.061 4.119 9.945l-12.869 31.065c-1.214 2.931-4.047 4.701-7.034 4.701z" fill="#fff0af"/></g></g></g><g><path d="m437.137 377.661h-.023c-1.239 0-2.305-.833-2.652-2.023-8.146-27.974-33.974-48.416-64.577-48.416-11.443 0-22.212 2.866-31.642 7.911-3.696 1.977-8.284.944-10.634-2.527-9.067-13.393-24.397-22.197-41.788-22.197-4.067 0-8.021.484-11.808 1.395-4.103.987-8.34-1.218-9.665-5.225-12.18-36.838-46.889-63.421-87.811-63.421-51.07 0-92.471 41.401-92.471 92.471 0 1.16.03 2.312.078 3.459.048 1.136-.325 2.25-1.024 3.146l-.072.093c-.876 1.122-2.202 1.785-3.624 1.862-44.745 2.438-80.184 39.842-79.41 85.373.782 46.028 39.073 82.603 85.108 82.603h351.014c36.961 0 67.769-29.401 68.249-66.359.485-37.551-29.809-68.145-67.248-68.145z" fill="#ecf4ff"/><path d="m437.137 377.661h-.023c-1.239 0-2.305-.833-2.652-2.023-8.146-27.974-33.974-48.416-64.577-48.416-11.443 0-22.212 2.866-31.642 7.911-3.696 1.977-8.284.944-10.634-2.527-9.067-13.393-24.397-22.197-41.788-22.197-4.067 0-8.021.484-11.808 1.395-4.103.987-8.34-1.218-9.665-5.225-12.18-36.838-46.889-63.421-87.811-63.421-51.07 0-92.471 41.401-92.471 92.471 0 1.16.03 2.312.078 3.459.048 1.136-.325 2.25-1.024 3.146l-.072.093c-.876 1.122-2.202 1.785-3.624 1.862-44.745 2.438-80.184 39.842-79.41 85.373.782 46.028 39.073 82.603 85.108 82.603h351.014c36.961 0 67.769-29.401 68.249-66.359.485-37.551-29.809-68.145-67.248-68.145z" fill="#ecf4ff"/><path d="m437.137 377.661h-.023c-1.239 0-2.305-.833-2.652-2.023-8.146-27.974-33.974-48.416-64.577-48.416-3.979 0-7.874.354-11.663 1.018 25.347 4.439 45.813 23.065 52.898 47.398.346 1.189 1.413 2.023 2.652 2.023h.023c37.439 0 67.733 30.593 67.246 68.145-.479 36.958-31.288 66.359-68.249 66.359h23.342c36.961 0 67.769-29.401 68.249-66.359.487-37.551-29.807-68.145-67.246-68.145z" fill="#daeaff"/><path d="m160.518 428.101c0 4.204 3.408 7.612 7.611 7.612 4.204 0 7.611-3.407 7.611-7.612 0-52.052-40.382-94.848-91.462-98.708-.137 2.062-.214 4.14-.214 6.236 0 1.16.03 2.312.078 3.459.048 1.136-.325 2.25-1.024 3.146l-.072.093c-.876 1.122-2.202 1.785-3.624 1.862-.675.037-1.34.107-2.011.159 45.886.359 83.107 37.785 83.107 83.753z" fill="#ddeafb"/><g><path d="m273.173 311.959c-3.828.521-7.592-1.645-8.827-5.379-.764-2.311-1.618-4.582-2.555-6.809-28.111 9.93-48.314 36.756-48.314 68.224 0 4.204 3.408 7.612 7.611 7.612s7.611-3.407 7.611-7.612c0-27.15 19.045-50.156 44.473-55.994v-.042z" fill="#ddeafb"/></g><path d="m377.497 448.719c0-4.204-3.408-7.612-7.611-7.612s-7.612 3.407-7.612 7.612c0 26.019 12.705 49.117 32.229 63.446h41.632c.815 0 1.623-.032 2.431-.06-33.886-1.257-61.069-29.199-61.069-63.386z" fill="#ddeafb"/></g></g></svg>